<?xml version="1.0" standalone="no"?>
<!DOCTYPE svg PUBLIC "-//W3C//DTD SVG 1.1//EN" "http://www.w3.org/Graphics/SVG/1.1/DTD/svg11.dtd">
<svg width="800" height="600" version="1.1" xmlns="http://www.w3.org/2000/svg">
<rect width="800" height="600" x="0" y="0" style="fill:rgb(238,238,238);stroke:none"/>
<rect width="800" height="600" x="0" y="0" style="fill:rgb(255,255,255);stroke:none"/>
<text x="2" y="566" fill="rgb(0,0,0)" font-family="Arial" font-size="12">0</text>
<text x="2" y="436" fill="rgb(0,0,0)" font-family="Arial" font-size="12">1</text>
<text x="2" y="306" fill="rgb(0,0,0)" font-family="Arial" font-size="12">2</text>
<text x="2" y="176" fill="rgb(0,0,0)" font-family="Arial" font-size="12">3</text>
<text x="2" y="46" fill="rgb(0,0,0)" font-family="Arial" font-size="12">4</text>
<text x="274" y="30" fill="rgb(0,0,0)" font-family="Arial" font-size="12">Quality score distribution over all sequences</text>
<line x1="13" y1="560" x2="790" y2="560" stroke="rgb(0,0,0)" stroke-width="1"/>
<line x1="13" y1="560" x2="13" y2="40" stroke="rgb(0,0,0)" stroke-width="1"/>
<text x="293" y="595" fill="rgb(0,0,0)" font-family="Arial" font-size="12">Mean Sequence Quality (Phred Score)</text>
<text x="20" y="575" fill="rgb(0,0,0)" font-family="Arial" font-size="12">14</text>
<rect width="31" height="520" x="44" y="40" style="fill:rgb(230,230,230);stroke:none"/>
<text x="51" y="575" fill="rgb(0,0,0)" font-family="Arial" font-size="12">15</text>
<text x="82" y="575" fill="rgb(0,0,0)" font-family="Arial" font-size="12">16</text>
<rect width="31" height="520" x="106" y="40" style="fill:rgb(230,230,230);stroke:none"/>
<text x="113" y="575" fill="rgb(0,0,0)" font-family="Arial" font-size="12">17</text>
<text x="144" y="575" fill="rgb(0,0,0)" font-family="Arial" font-size="12">18</text>
<rect width="31" height="520" x="168" y="40" style="fill:rgb(230,230,230);stroke:none"/>
<text x="175" y="575" fill="rgb(0,0,0)" font-family="Arial" font-size="12">19</text>
<text x="206" y="575" fill="rgb(0,0,0)" font-family="Arial" font-size="12">20</text>
<rect width="31" height="520" x="230" y="40" style="fill:rgb(230,230,230);stroke:none"/>
<text x="237" y="575" fill="rgb(0,0,0)" font-family="Arial" font-size="12">21</text>
<text x="268" y="575" fill="rgb(0,0,0)" font-family="Arial" font-size="12">22</text>
<rect width="31" height="520" x="292" y="40" style="fill:rgb(230,230,230);stroke:none"/>
<text x="299" y="575" fill="rgb(0,0,0)" font-family="Arial" font-size="12">23</text>
<text x="330" y="575" fill="rgb(0,0,0)" font-family="Arial" font-size="12">24</text>
<rect width="31" height="520" x="354" y="40" style="fill:rgb(230,230,230);stroke:none"/>
<text x="361" y="575" fill="rgb(0,0,0)" font-family="Arial" font-size="12">25</text>
<text x="392" y="575" fill="rgb(0,0,0)" font-family="Arial" font-size="12">26</text>
<rect width="31" height="520" x="416" y="40" style="fill:rgb(230,230,230);stroke:none"/>
<text x="423" y="575" fill="rgb(0,0,0)" font-family="Arial" font-size="12">27</text>
<text x="454" y="575" fill="rgb(0,0,0)" font-family="Arial" font-size="12">28</text>
<rect width="31" height="520" x="478" y="40" style="fill:rgb(230,230,230);stroke:none"/>
<text x="485" y="575" fill="rgb(0,0,0)" font-family="Arial" font-size="12">29</text>
<text x="516" y="575" fill="rgb(0,0,0)" font-family="Arial" font-size="12">30</text>
<rect width="31" height="520" x="540" y="40" style="fill:rgb(230,230,230);stroke:none"/>
<text x="547" y="575" fill="rgb(0,0,0)" font-family="Arial" font-size="12">31</text>
<text x="578" y="575" fill="rgb(0,0,0)" font-family="Arial" font-size="12">32</text>
<rect width="31" height="520" x="602" y="40" style="fill:rgb(230,230,230);stroke:none"/>
<text x="609" y="575" fill="rgb(0,0,0)" font-family="Arial" font-size="12">33</text>
<text x="640" y="575" fill="rgb(0,0,0)" font-family="Arial" font-size="12">34</text>
<rect width="31" height="520" x="664" y="40" style="fill:rgb(230,230,230);stroke:none"/>
<text x="671" y="575" fill="rgb(0,0,0)" font-family="Arial" font-size="12">35</text>
<text x="702" y="575" fill="rgb(0,0,0)" font-family="Arial" font-size="12">36</text>
<rect width="31" height="520" x="726" y="40" style="fill:rgb(230,230,230);stroke:none"/>
<text x="733" y="575" fill="rgb(0,0,0)" font-family="Arial" font-size="12">37</text>
<text x="764" y="575" fill="rgb(0,0,0)" font-family="Arial" font-size="12">38</text>
<line x1="13" y1="560" x2="790" y2="560" stroke="rgb(180,180,180)" stroke-width="1"/>
<line x1="13" y1="430" x2="790" y2="430" stroke="rgb(180,180,180)" stroke-width="1"/>
<line x1="13" y1="300" x2="790" y2="300" stroke="rgb(180,180,180)" stroke-width="1"/>
<line x1="13" y1="170" x2="790" y2="170" stroke="rgb(180,180,180)" stroke-width="1"/>
<line x1="13" y1="40" x2="790" y2="40" stroke="rgb(180,180,180)" stroke-width="1"/>
<line x1="28" y1="430" x2="59" y2="560" stroke="rgb(136,34,85)" stroke-width="1"/>
<line x1="59" y1="560" x2="90" y2="560" stroke="rgb(136,34,85)" stroke-width="1"/>
<line x1="90" y1="560" x2="121" y2="560" stroke="rgb(136,34,85)" stroke-width="1"/>
<line x1="121" y1="560" x2="152" y2="430" stroke="rgb(136,34,85)" stroke-width="1"/>
<line x1="152" y1="430" x2="183" y2="430" stroke="rgb(136,34,85)" stroke-width="1"/>
<line x1="183" y1="430" x2="214" y2="560" stroke="rgb(136,34,85)" stroke-width="1"/>
<line x1="214" y1="560" x2="245" y2="430" stroke="rgb(136,34,85)" stroke-width="1"/>
<line x1="245" y1="430" x2="276" y2="560" stroke="rgb(136,34,85)" stroke-width="1"/>
<line x1="276" y1="560" x2="307" y2="300" stroke="rgb(136,34,85)" stroke-width="1"/>
<line x1="307" y1="300" x2="338" y2="430" stroke="rgb(136,34,85)" stroke-width="1"/>
<line x1="338" y1="430" x2="369" y2="430" stroke="rgb(136,34,85)" stroke-width="1"/>
<line x1="369" y1="430" x2="400" y2="560" stroke="rgb(136,34,85)" stroke-width="1"/>
<line x1="400" y1="560" x2="431" y2="560" stroke="rgb(136,34,85)" stroke-width="1"/>
<line x1="431" y1="560" x2="462" y2="300" stroke="rgb(136,34,85)" stroke-width="1"/>
<line x1="462" y1="300" x2="493" y2="430" stroke="rgb(136,34,85)" stroke-width="1"/>
<line x1="493" y1="430" x2="524" y2="560" stroke="rgb(136,34,85)" stroke-width="1"/>
<line x1="524" y1="560" x2="555" y2="430" stroke="rgb(136,34,85)" stroke-width="1"/>
<line x1="555" y1="430" x2="586" y2="560" stroke="rgb(136,34,85)" stroke-width="1"/>
<line x1="586" y1="560" x2="617" y2="560" stroke="rgb(136,34,85)" stroke-width="1"/>
<line x1="617" y1="560" x2="648" y2="300" stroke="rgb(136,34,85)" stroke-width="1"/>
<line x1="648" y1="300" x2="679" y2="300" stroke="rgb(136,34,85)" stroke-width="1"/>
<line x1="679" y1="300" x2="710" y2="560" stroke="rgb(136,34,85)" stroke-width="1"/>
<line x1="710" y1="560" x2="741" y2="560" stroke="rgb(136,34,85)" stroke-width="1"/>
<line x1="741" y1="560" x2="772" y2="40" stroke="rgb(136,34,85)" stroke-width="1"/>
<rect width="160" height="23" x="630" y="40" style="fill:rgb(255,255,255);stroke:none"/>
<rect width="160" height="23" x="630" y="40" rx="0" ry="0" style="fill:none;stroke-width:1;stroke:rgb(192,192,192)"/>
<text x="633" y="55" fill="rgb(136,34,85)" font-family="Arial" font-size="12" font-weight="bold">Average Quality per read</text>
</svg>
