<?xml version="1.0" standalone="no"?>
<!DOCTYPE svg PUBLIC "-//W3C//DTD SVG 1.1//EN" "http://www.w3.org/Graphics/SVG/1.1/DTD/svg11.dtd">
<svg width="800" height="600" version="1.1" xmlns="http://www.w3.org/2000/svg">
<rect width="800" height="600" x="0" y="0" style="fill:rgb(238,238,238);stroke:none"/>
<rect width="800" height="600" x="0" y="0" style="fill:rgb(255,255,255);stroke:none"/>
<text x="2" y="566" fill="rgb(0,0,0)" font-family="Arial" font-size="12">0</text>
<text x="2" y="436" fill="rgb(0,0,0)" font-family="Arial" font-size="12">1</text>
<text x="2" y="306" fill="rgb(0,0,0)" font-family="Arial" font-size="12">2</text>
<text x="2" y="176" fill="rgb(0,0,0)" font-family="Arial" font-size="12">3</text>
<text x="2" y="46" fill="rgb(0,0,0)" font-family="Arial" font-size="12">4</text>
<text x="253" y="30" fill="rgb(0,0,0)" font-family="Arial" font-size="12">Distribution of sequence lengths over all sequences</text>
<line x1="13" y1="560" x2="790" y2="560" stroke="rgb(0,0,0)" stroke-width="1"/>
<line x1="13" y1="560" x2="13" y2="40" stroke="rgb(0,0,0)" stroke-width="1"/>
<text x="338" y="595" fill="rgb(0,0,0)" font-family="Arial" font-size="12">Sequence Length (bp)</text>
<text x="1" y="575" fill="rgb(0,0,0)" font-family="Arial" font-size="12">38-39</text>
<rect width="15" height="520" x="28" y="40" style="fill:rgb(230,230,230);stroke:none"/>
<rect width="15" height="520" x="58" y="40" style="fill:rgb(230,230,230);stroke:none"/>
<text x="46" y="575" fill="rgb(0,0,0)" font-family="Arial" font-size="12">44-45</text>
<rect width="15" height="520" x="88" y="40" style="fill:rgb(230,230,230);stroke:none"/>
<text x="91" y="575" fill="rgb(0,0,0)" font-family="Arial" font-size="12">50-51</text>
<rect width="15" height="520" x="118" y="40" style="fill:rgb(230,230,230);stroke:none"/>
<rect width="15" height="520" x="148" y="40" style="fill:rgb(230,230,230);stroke:none"/>
<text x="136" y="575" fill="rgb(0,0,0)" font-family="Arial" font-size="12">56-57</text>
<rect width="15" height="520" x="178" y="40" style="fill:rgb(230,230,230);stroke:none"/>
<text x="181" y="575" fill="rgb(0,0,0)" font-family="Arial" font-size="12">62-63</text>
<rect width="15" height="520" x="208" y="40" style="fill:rgb(230,230,230);stroke:none"/>
<rect width="15" height="520" x="238" y="40" style="fill:rgb(230,230,230);stroke:none"/>
<text x="226" y="575" fill="rgb(0,0,0)" font-family="Arial" font-size="12">68-69</text>
<rect width="15" height="520" x="268" y="40" style="fill:rgb(230,230,230);stroke:none"/>
<text x="271" y="575" fill="rgb(0,0,0)" font-family="Arial" font-size="12">74-75</text>
<rect width="15" height="520" x="298" y="40" style="fill:rgb(230,230,230);stroke:none"/>
<rect width="15" height="520" x="328" y="40" style="fill:rgb(230,230,230);stroke:none"/>
<text x="316" y="575" fill="rgb(0,0,0)" font-family="Arial" font-size="12">80-81</text>
<rect width="15" height="520" x="358" y="40" style="fill:rgb(230,230,230);stroke:none"/>
<text x="361" y="575" fill="rgb(0,0,0)" font-family="Arial" font-size="12">86-87</text>
<rect width="15" height="520" x="388" y="40" style="fill:rgb(230,230,230);stroke:none"/>
<rect width="15" height="520" x="418" y="40" style="fill:rgb(230,230,230);stroke:none"/>
<text x="406" y="575" fill="rgb(0,0,0)" font-family="Arial" font-size="12">92-93</text>
<rect width="15" height="520" x="448" y="40" style="fill:rgb(230,230,230);stroke:none"/>
<text x="451" y="575" fill="rgb(0,0,0)" font-family="Arial" font-size="12">98-99</text>
<rect width="15" height="520" x="478" y="40" style="fill:rgb(230,230,230);stroke:none"/>
<rect width="15" height="520" x="508" y="40" style="fill:rgb(230,230,230);stroke:none"/>
<text x="503" y="575" fill="rgb(0,0,0)" font-family="Arial" font-size="12">106-107</text>
<rect width="15" height="520" x="538" y="40" style="fill:rgb(230,230,230);stroke:none"/>
<rect width="15" height="520" x="568" y="40" style="fill:rgb(230,230,230);stroke:none"/>
<rect width="15" height="520" x="598" y="40" style="fill:rgb(230,230,230);stroke:none"/>
<text x="578" y="575" fill="rgb(0,0,0)" font-family="Arial" font-size="12">116-117</text>
<rect width="15" height="520" x="628" y="40" style="fill:rgb(230,230,230);stroke:none"/>
<rect width="15" height="520" x="658" y="40" style="fill:rgb(230,230,230);stroke:none"/>
<text x="653" y="575" fill="rgb(0,0,0)" font-family="Arial" font-size="12">126-127</text>
<rect width="15" height="520" x="688" y="40" style="fill:rgb(230,230,230);stroke:none"/>
<rect width="15" height="520" x="718" y="40" style="fill:rgb(230,230,230);stroke:none"/>
<line x1="13" y1="560" x2="790" y2="560" stroke="rgb(180,180,180)" stroke-width="1"/>
<line x1="13" y1="430" x2="790" y2="430" stroke="rgb(180,180,180)" stroke-width="1"/>
<line x1="13" y1="300" x2="790" y2="300" stroke="rgb(180,180,180)" stroke-width="1"/>
<line x1="13" y1="170" x2="790" y2="170" stroke="rgb(180,180,180)" stroke-width="1"/>
<line x1="13" y1="40" x2="790" y2="40" stroke="rgb(180,180,180)" stroke-width="1"/>
<line x1="20" y1="560" x2="35" y2="430" stroke="rgb(136,34,85)" stroke-width="1"/>
<line x1="35" y1="430" x2="50" y2="560" stroke="rgb(136,34,85)" stroke-width="1"/>
<line x1="50" y1="560" x2="65" y2="560" stroke="rgb(136,34,85)" stroke-width="1"/>
<line x1="65" y1="560" x2="80" y2="560" stroke="rgb(136,34,85)" stroke-width="1"/>
<line x1="80" y1="560" x2="95" y2="430" stroke="rgb(136,34,85)" stroke-width="1"/>
<line x1="95" y1="430" x2="110" y2="560" stroke="rgb(136,34,85)" stroke-width="1"/>
<line x1="110" y1="560" x2="125" y2="560" stroke="rgb(136,34,85)" stroke-width="1"/>
<line x1="125" y1="560" x2="140" y2="560" stroke="rgb(136,34,85)" stroke-width="1"/>
<line x1="140" y1="560" x2="155" y2="560" stroke="rgb(136,34,85)" stroke-width="1"/>
<line x1="155" y1="560" x2="170" y2="560" stroke="rgb(136,34,85)" stroke-width="1"/>
<line x1="170" y1="560" x2="185" y2="560" stroke="rgb(136,34,85)" stroke-width="1"/>
<line x1="185" y1="560" x2="200" y2="430" stroke="rgb(136,34,85)" stroke-width="1"/>
<line x1="200" y1="430" x2="215" y2="560" stroke="rgb(136,34,85)" stroke-width="1"/>
<line x1="215" y1="560" x2="230" y2="300" stroke="rgb(136,34,85)" stroke-width="1"/>
<line x1="230" y1="300" x2="245" y2="430" stroke="rgb(136,34,85)" stroke-width="1"/>
<line x1="245" y1="430" x2="260" y2="430" stroke="rgb(136,34,85)" stroke-width="1"/>
<line x1="260" y1="430" x2="275" y2="430" stroke="rgb(136,34,85)" stroke-width="1"/>
<line x1="275" y1="430" x2="290" y2="40" stroke="rgb(136,34,85)" stroke-width="1"/>
<line x1="290" y1="40" x2="305" y2="560" stroke="rgb(136,34,85)" stroke-width="1"/>
<line x1="305" y1="560" x2="320" y2="300" stroke="rgb(136,34,85)" stroke-width="1"/>
<line x1="320" y1="300" x2="335" y2="560" stroke="rgb(136,34,85)" stroke-width="1"/>
<line x1="335" y1="560" x2="350" y2="300" stroke="rgb(136,34,85)" stroke-width="1"/>
<line x1="350" y1="300" x2="365" y2="430" stroke="rgb(136,34,85)" stroke-width="1"/>
<line x1="365" y1="430" x2="380" y2="430" stroke="rgb(136,34,85)" stroke-width="1"/>
<line x1="380" y1="430" x2="395" y2="560" stroke="rgb(136,34,85)" stroke-width="1"/>
<line x1="395" y1="560" x2="410" y2="560" stroke="rgb(136,34,85)" stroke-width="1"/>
<line x1="410" y1="560" x2="425" y2="430" stroke="rgb(136,34,85)" stroke-width="1"/>
<line x1="425" y1="430" x2="440" y2="560" stroke="rgb(136,34,85)" stroke-width="1"/>
<line x1="440" y1="560" x2="455" y2="560" stroke="rgb(136,34,85)" stroke-width="1"/>
<line x1="455" y1="560" x2="470" y2="560" stroke="rgb(136,34,85)" stroke-width="1"/>
<line x1="470" y1="560" x2="485" y2="560" stroke="rgb(136,34,85)" stroke-width="1"/>
<line x1="485" y1="560" x2="500" y2="560" stroke="rgb(136,34,85)" stroke-width="1"/>
<line x1="500" y1="560" x2="515" y2="560" stroke="rgb(136,34,85)" stroke-width="1"/>
<line x1="515" y1="560" x2="530" y2="560" stroke="rgb(136,34,85)" stroke-width="1"/>
<line x1="530" y1="560" x2="545" y2="560" stroke="rgb(136,34,85)" stroke-width="1"/>
<line x1="545" y1="560" x2="560" y2="560" stroke="rgb(136,34,85)" stroke-width="1"/>
<line x1="560" y1="560" x2="575" y2="560" stroke="rgb(136,34,85)" stroke-width="1"/>
<line x1="575" y1="560" x2="590" y2="560" stroke="rgb(136,34,85)" stroke-width="1"/>
<line x1="590" y1="560" x2="605" y2="560" stroke="rgb(136,34,85)" stroke-width="1"/>
<line x1="605" y1="560" x2="620" y2="560" stroke="rgb(136,34,85)" stroke-width="1"/>
<line x1="620" y1="560" x2="635" y2="560" stroke="rgb(136,34,85)" stroke-width="1"/>
<line x1="635" y1="560" x2="650" y2="560" stroke="rgb(136,34,85)" stroke-width="1"/>
<line x1="650" y1="560" x2="665" y2="560" stroke="rgb(136,34,85)" stroke-width="1"/>
<line x1="665" y1="560" x2="680" y2="560" stroke="rgb(136,34,85)" stroke-width="1"/>
<line x1="680" y1="560" x2="695" y2="560" stroke="rgb(136,34,85)" stroke-width="1"/>
<line x1="695" y1="560" x2="710" y2="560" stroke="rgb(136,34,85)" stroke-width="1"/>
<line x1="710" y1="560" x2="725" y2="430" stroke="rgb(136,34,85)" stroke-width="1"/>
<line x1="725" y1="430" x2="740" y2="560" stroke="rgb(136,34,85)" stroke-width="1"/>
<rect width="111" height="23" x="679" y="40" style="fill:rgb(255,255,255);stroke:none"/>
<rect width="111" height="23" x="679" y="40" rx="0" ry="0" style="fill:none;stroke-width:1;stroke:rgb(192,192,192)"/>
<text x="682" y="55" fill="rgb(136,34,85)" font-family="Arial" font-size="12" font-weight="bold">Sequence Length</text>
</svg>
